<mxfile host="drawio-plugin" modified="2022-03-19T16:17:34.501Z" agent="5.0 (Macintosh; Intel Mac OS X 12_3_0) AppleWebKit/537.36 (KHTML, like Gecko) Chrome/89.0.4389.114 Safari/537.36" version="15.5.4" etag="xWcltGJE_vugI3-9G18d" type="embed"><diagram id="rHfcj9GtGNLDSDfz2QJz" name="Page-1"><mxGraphModel dx="1371" dy="778" grid="1" gridSize="10" guides="1" tooltips="1" connect="1" arrows="1" fold="1" page="1" pageScale="1" pageWidth="850" pageHeight="1100" math="0" shadow="0"><root><mxCell id="0"/><mxCell id="1" parent="0"/><mxCell id="2" value="DataBase" style="ellipse;whiteSpace=wrap;html=1;" vertex="1" parent="1"><mxGeometry x="380" y="260" width="140" height="130" as="geometry"/></mxCell><mxCell id="4" value="" style="endArrow=classic;html=1;rounded=0;" edge="1" parent="1"><mxGeometry width="50" height="50" relative="1" as="geometry"><mxPoint x="90" y="190" as="sourcePoint"/><mxPoint x="360" y="310" as="targetPoint"/></mxGeometry></mxCell><mxCell id="5" value="" style="endArrow=classic;html=1;rounded=0;" edge="1" parent="1"><mxGeometry width="50" height="50" relative="1" as="geometry"><mxPoint x="540" y="310" as="sourcePoint"/><mxPoint x="820" y="150" as="targetPoint"/></mxGeometry></mxCell><mxCell id="6" value="Write" style="text;html=1;align=center;verticalAlign=middle;resizable=0;points=[];autosize=1;strokeColor=none;fillColor=none;" vertex="1" parent="1"><mxGeometry x="230" y="220" width="40" height="20" as="geometry"/></mxCell><mxCell id="7" value="Read" style="text;html=1;align=center;verticalAlign=middle;resizable=0;points=[];autosize=1;strokeColor=none;fillColor=none;" vertex="1" parent="1"><mxGeometry x="620" y="220" width="40" height="20" as="geometry"/></mxCell><mxCell id="8" value="DISK" style="text;html=1;align=center;verticalAlign=middle;resizable=0;points=[];autosize=1;strokeColor=none;fillColor=none;" vertex="1" parent="1"><mxGeometry x="200" y="460" width="40" height="20" as="geometry"/></mxCell><mxCell id="9" value="Persistence" style="text;html=1;align=center;verticalAlign=middle;resizable=0;points=[];autosize=1;strokeColor=none;fillColor=none;" vertex="1" parent="1"><mxGeometry x="400" y="460" width="80" height="20" as="geometry"/></mxCell><mxCell id="10" value="Memory" style="text;html=1;align=center;verticalAlign=middle;resizable=0;points=[];autosize=1;strokeColor=none;fillColor=none;" vertex="1" parent="1"><mxGeometry x="660" y="460" width="60" height="20" as="geometry"/></mxCell></root></mxGraphModel></diagram></mxfile>